<mxfile host="app.diagrams.net" modified="2023-12-21T08:39:54.181Z" agent="Mozilla/5.0 (Macintosh; Intel Mac OS X 10_15_7) AppleWebKit/537.36 (KHTML, like Gecko) Chrome/117.0.0.0 Safari/537.36" version="22.1.11" etag="zrnIRuq9zmX9VlJuZLHx" type="github">
  <diagram name="Page-1" id="gv2XXGUPY00xqv7m-K2-">
    <mxGraphModel>
      <root>
        <mxCell id="0" />
        <mxCell id="1" parent="0" />
      </root>
    </mxGraphModel>
  </diagram>
</mxfile>
